{"title":"Blade II(2002)MPEG-4[DaScubaDude]","uid":15191997,"size":1275161344,"categoryP":"video","categoryS":"movies","magnet":"?xt=urn:btih:b8ff762af51ddcc8be699f450dddcc480c59750c&amp;dn=Blade+II%282002%29MPEG-4%5BDaScubaDude%5D&amp;tr=udp%3A%2F%2Ftracker.leechers-paradise.org%3A6969&amp;tr=udp%3A%2F%2Fzer0day.ch%3A1337&amp;tr=udp%3A%2F%2Fopen.demonii.com%3A1337&amp;tr=udp%3A%2F%2Ftracker.coppersurfer.tk%3A6969&amp;tr=udp%3A%2F%2Fexodus.desync.com%3A6969","seeders":0,"leechers":1,"uploader":"dascuba","files":1,"time":1467527715,"description":"Blade II (2002)\r\nR | 1h 57min | Action, Horror, Sci-Fi | 22 March 2002 (USA)\r\nBlade forms an uneasy alliance with the vampire council in order to combat the Reaper vampires who feed on vampires.\r\nDirector: Guillermo del Toro\r\nWriters: Marv Wolfman (character), Gene Colan (character) | \r\nStars: Wesley Snipes, Kris Kristofferson, Ron Perlman |\r\n\r\nGeneral\r\nComplete name                            : Blade IIBLADE2_Title1.mp4\r\nFormat                                   : MPEG-4\r\nFormat profile                           : Base Media\r\nCodec ID                                 : isom (isom/iso2/avc1/mp41)\r\nFile size                                : 1.19 GiB\r\nDuration                                 : 1h 56mn\r\nOverall bit rate                         : 1 456 Kbps\r\nMovie name                               : BLADE2\r\nGenre                                    : Action\r\nWriting application                      : Lavf54.6.100\r\n\r\nVideo\r\nID                                       : 1\r\nFormat                                   : AVC\r\nFormat/Info                              : Advanced Video Codec\r\nFormat profile                           :   \r\nFormat settings, CABAC                   : No\r\nFormat settings, ReFrames                : 6 frames\r\nCodec ID                                 : avc1\r\nCodec ID/Info                            : Advanced Video Coding\r\nDuration                                 : 1h 56mn\r\nBit rate                                 : 1 192 Kbps\r\nWidth                                    : 720 pixels\r\nHeight                                   : 404 pixels\r\nDisplay aspect ratio                     : 16:9\r\nFrame rate mode                          : Constant\r\nFrame rate                               : 29.970 (30000/1001) fps\r\nColor space                              : YUV\r\nChroma subsampling                       : 4:2:0\r\nBit depth                                : 8 bits\r\nScan type                                : Progressive\r\nBits/(Pixel*Frame)                       : 0.137\r\nStream size                              : 995 MiB (82%)\r\n\r\nAudio\r\nID                                       : 2\r\nFormat                                   : AAC\r\nFormat/Info                              : Advanced Audio Codec\r\nFormat profile                           : LC\r\nCodec ID                                 : 40\r\nDuration                                 : 1h 56mn\r\nBit rate mode                            : Constant\r\nBit rate                                 : 258 Kbps\r\nChannel(s)                               : 2 channels\r\nChannel(s)_Original                      : 6 channels\r\nChannel positions                        : Front: L C R, Side: L R, LFE\r\nSampling rate                            : 44.1 KHz\r\nFrame rate                               : 43.066 fps (1024 spf)\r\nCompression mode                         : Lossy\r\nStream size                              : 215 MiB (18%)\r\nDefault                                  : Yes\r\nAlternate group                          : 1","torrent":{"xt":"urn:btih:b8ff762af51ddcc8be699f450dddcc480c59750c","amp;dn":"Blade+II%282002%29MPEG-4%5BDaScubaDude%5D","amp;tr":["udp%3A%2F%2Ftracker.leechers-paradise.org%3A6969","udp%3A%2F%2Fzer0day.ch%3A1337","udp%3A%2F%2Fopen.demonii.com%3A1337","udp%3A%2F%2Ftracker.coppersurfer.tk%3A6969","udp%3A%2F%2Fexodus.desync.com%3A6969"],"infoHash":"b8ff762af51ddcc8be699f450dddcc480c59750c","infoHashBuffer":{"type":"Buffer","data":[184,255,118,42,245,29,220,200,190,105,159,69,13,221,204,72,12,89,117,12]},"announce":[],"urlList":[]}}